# File created by Blade
# Date/Time:  Fri Jan 16 19:49:56 2015
# Frame Rate: 120.000 fps
#------------------------------------------------------
:FULLY-SPECIFIED
:DEGREES
357
root 20.297862 35.004851 -11.850987 -109.002943 2.912005 -178.172739
Spine 69.546713 1.171142 -11.446179
Head -16.682213 3.748042 0.046749
LeftShoulder -20.309715 19.106458 10.458044
LeftArm -59.005693 11.307566 -102.530847
LeftForeArm 18.910975 -0.000000 -1.053760
LeftHand -1.567180 -0.000000 -43.561502
LeftHandThumb1 -26.253704 0.000000 33.147579
RightShoulder -23.763377 -51.514974 -5.510554
RightArm -22.020932 -26.923182 88.885654
RightForeArm -37.133822 -0.000000 7.237393
RightHand 4.673936 -0.000000 49.109518
RightHandThumb1 -24.326973 -0.000000 -32.862282
LeftUpLeg -76.322555 7.241017 2.107933
LeftLeg -7.090686 -0.000000 0.000000
LeftFoot -4.797344 33.354604 -7.663280
LeftToeBase 26.999816 -0.000000 -0.000000
RightUpLeg -76.806486 -2.002257 -5.053477
RightLeg -6.035614 -0.000000 0.000000
RightFoot -4.921037 -16.630649 14.813367
RightToeBase 27.215998 -0.000000 -0.000000
358
root 20.297474 35.002292 -11.822825 -109.200995 2.907105 -178.185507
Spine 69.501031 1.168681 -11.376189
Head -16.498697 3.711901 0.020728
LeftShoulder -20.300139 19.227419 10.446057
LeftArm -59.004585 11.295442 -102.434263
LeftForeArm 19.003077 -0.000000 -1.026176
LeftHand -1.563452 -0.000000 -43.521272
LeftHandThumb1 -26.253704 0.000000 33.147579
RightShoulder -23.897856 -51.574856 -5.476911
RightArm -22.018207 -26.747591 88.731344
RightForeArm -37.314173 -0.000000 7.231607
RightHand 4.710924 -0.000000 49.140047
RightHandThumb1 -24.326973 -0.000000 -32.862282
LeftUpLeg -76.205037 7.222244 2.153984
LeftLeg -7.014703 -0.000000 0.000000
LeftFoot -4.837215 33.333451 -7.766541
LeftToeBase 27.029787 -0.000000 -0.000000
RightUpLeg -76.683435 -1.988403 -5.104434
RightLeg -5.956693 -0.000000 0.000000
RightFoot -4.996288 -16.682730 14.865425
RightToeBase 27.305775 -0.000000 -0.000000
359
root 20.299212 35.001170 -11.796176 -109.398423 2.903003 -178.187268
Spine 69.445985 1.176413 -11.330004
Head -16.361623 3.695572 0.042901
LeftShoulder -20.313895 19.329686 10.456960
LeftArm -59.009631 11.286799 -102.378725
LeftForeArm 19.081921 -0.000000 -1.016413
LeftHand -1.569619 -0.000000 -43.482373
LeftHandThumb1 -26.253704 0.000000 33.147579
RightShoulder -24.008718 -51.622868 -5.443636
RightArm -22.020128 -26.619994 88.593572
RightForeArm -37.415737 -0.000000 7.231841
RightHand 4.651695 -0.000000 49.138444
RightHandThumb1 -24.326973 -0.000000 -32.862282
LeftUpLeg -76.078789 7.219555 2.186565
LeftLeg -6.957861 -0.000000 0.000000
LeftFoot -4.851023 33.303703 -7.868180
LeftToeBase 27.016153 -0.000000 -0.000000
RightUpLeg -76.555462 -1.966183 -5.195217
RightLeg -5.878660 -0.000000 0.000000
RightFoot -5.054666 -16.686868 14.984734
RightToeBase 27.236440 -0.000000 -0.000000
360
root 20.298588 35.000620 -11.768402 -109.601429 2.907896 -178.192621
Spine 69.386203 1.198295 -11.231918
Head -16.260405 3.643861 0.058172
LeftShoulder -20.249668 19.391904 10.494439
LeftArm -59.035889 11.246753 -102.291485
LeftForeArm 19.235650 0.000000 -1.006201
LeftHand -1.571713 -0.000000 -43.421664
LeftHandThumb1 -26.253704 0.000000 33.147579
RightShoulder -24.203066 -51.632622 -5.330877
RightArm -22.088078 -26.485506 88.465849
RightForeArm -37.548760 -0.000000 7.297582
RightHand 4.579474 -0.000000 49.206576
RightHandThumb1 -24.326973 -0.000000 -32.862282
LeftUpLeg -75.942095 7.209051 2.250891
LeftLeg -6.888138 -0.000000 0.000000
LeftFoot -4.833944 33.275731 -7.903255
LeftToeBase 26.987876 -0.000000 -0.000000
RightUpLeg -76.436206 -1.937299 -5.332590
RightLeg -5.772822 -0.000000 0.000000
RightFoot -5.152495 -16.743011 15.096010
RightToeBase 27.621893 -0.000000 -0.000000
361
root 20.301458 35.000693 -11.741643 -109.821461 2.895147 -178.173539
Spine 69.328116 1.249326 -11.091529
Head -16.150139 3.574249 0.051931
LeftShoulder -20.161140 19.493588 10.526836
LeftArm -58.989437 11.181836 -102.157265
LeftForeArm 19.411761 -0.000000 -1.043485
LeftHand -1.535861 -0.000000 -43.365139
LeftHandThumb1 -26.253704 0.000000 33.147579
RightShoulder -24.428297 -51.643783 -5.194996
RightArm -22.168342 -26.535952 88.403824
RightForeArm -37.635483 -0.000000 7.335851
RightHand 4.674716 0.000000 49.222212
RightHandThumb1 -24.326973 -0.000000 -32.862282
LeftUpLeg -75.788012 7.221403 2.344463
LeftLeg -6.816327 -0.000000 0.000000
LeftFoot -4.852127 33.239561 -7.989722
LeftToeBase 27.046425 -0.000000 -0.000000
RightUpLeg -76.305314 -1.882247 -5.463039
RightLeg -5.660194 -0.000000 0.000000
RightFoot -5.204813 -16.817563 15.245915
RightToeBase 27.588323 -0.000000 -0.000000
